<?xml version="1.0" encoding="UTF-8" standalone="no"?>
<!DOCTYPE svg PUBLIC "-//W3C//DTD SVG 1.1//EN"
 "http://www.w3.org/Graphics/SVG/1.1/DTD/svg11.dtd">
<!-- Generated by graphviz version 2.43.0 (0)
 -->
<!-- Title: snakemake_dag Pages: 1 -->
<svg width="1025pt" height="44pt"
 viewBox="0.00 0.00 1025.39 44.00" xmlns="http://www.w3.org/2000/svg" xmlns:xlink="http://www.w3.org/1999/xlink">
<g id="graph0" class="graph" transform="scale(1 1) rotate(0) translate(4 40)">
<title>snakemake_dag</title>
<polygon fill="white" stroke="transparent" points="-4,4 -4,-40 1021.39,-40 1021.39,4 -4,4"/>
<!-- 0 -->
<g id="node1" class="node">
<title>0</title>
<polygon fill="#ff3030" stroke="#ff3030" stroke-width="2" points="1017.39,-36 963.39,-36 963.39,0 1017.39,0 1017.39,-36"/>
<text text-anchor="middle" x="990.39" y="-12.6" font-family="sans" font-size="18.00">all</text>
</g>
<!-- 1 -->
<g id="node2" class="node">
<title>1</title>
<path fill="none" stroke="ghostwhite" stroke-width="2" d="M915.44,-36C915.44,-36 808.25,-36 808.25,-36 802.25,-36 796.25,-30 796.25,-24 796.25,-24 796.25,-12 796.25,-12 796.25,-6 802.25,0 808.25,0 808.25,0 915.44,0 915.44,0 921.44,0 927.44,-6 927.44,-12 927.44,-12 927.44,-24 927.44,-24 927.44,-30 921.44,-36 915.44,-36"/>
<text text-anchor="middle" x="861.85" y="-12.6" font-family="sans" font-size="18.00">average depth</text>
</g>
<!-- 1&#45;&gt;0 -->
<g id="edge1" class="edge">
<title>1&#45;&gt;0</title>
<path fill="none" stroke="grey" stroke-width="2" d="M927.6,-18C936.4,-18 945.15,-18 953.19,-18"/>
<polygon fill="grey" stroke="grey" stroke-width="2" points="953.29,-21.5 963.29,-18 953.29,-14.5 953.29,-21.5"/>
</g>
<!-- 2 -->
<g id="node3" class="node">
<title>2</title>
<path fill="none" stroke="ghostwhite" stroke-width="2" d="M748.32,-36C748.32,-36 711.23,-36 711.23,-36 705.23,-36 699.23,-30 699.23,-24 699.23,-24 699.23,-12 699.23,-12 699.23,-6 705.23,0 711.23,0 711.23,0 748.32,0 748.32,0 754.32,0 760.32,-6 760.32,-12 760.32,-12 760.32,-24 760.32,-24 760.32,-30 754.32,-36 748.32,-36"/>
<text text-anchor="middle" x="729.78" y="-12.6" font-family="sans" font-size="18.00">depth</text>
</g>
<!-- 2&#45;&gt;1 -->
<g id="edge2" class="edge">
<title>2&#45;&gt;1</title>
<path fill="none" stroke="grey" stroke-width="2" d="M760.62,-18C768.36,-18 777.05,-18 785.99,-18"/>
<polygon fill="grey" stroke="grey" stroke-width="2" points="786.16,-21.5 796.16,-18 786.16,-14.5 786.16,-21.5"/>
</g>
<!-- 3 -->
<g id="node4" class="node">
<title>3</title>
<path fill="none" stroke="ghostwhite" stroke-width="2" d="M651.29,-36C651.29,-36 536.15,-36 536.15,-36 530.15,-36 524.15,-30 524.15,-24 524.15,-24 524.15,-12 524.15,-12 524.15,-6 530.15,0 536.15,0 536.15,0 651.29,0 651.29,0 657.29,0 663.29,-6 663.29,-12 663.29,-12 663.29,-24 663.29,-24 663.29,-30 657.29,-36 651.29,-36"/>
<text text-anchor="middle" x="593.72" y="-12.6" font-family="sans" font-size="18.00">subset to chr21</text>
</g>
<!-- 3&#45;&gt;2 -->
<g id="edge3" class="edge">
<title>3&#45;&gt;2</title>
<path fill="none" stroke="grey" stroke-width="2" d="M663.32,-18C672.1,-18 680.84,-18 688.95,-18"/>
<polygon fill="grey" stroke="grey" stroke-width="2" points="689.18,-21.5 699.18,-18 689.18,-14.5 689.18,-21.5"/>
</g>
<!-- 4 -->
<g id="node5" class="node">
<title>4</title>
<path fill="none" stroke="ghostwhite" stroke-width="2" d="M282.15,-36C282.15,-36 147,-36 147,-36 141,-36 135,-30 135,-24 135,-24 135,-12 135,-12 135,-6 141,0 147,0 147,0 282.15,0 282.15,0 288.15,0 294.15,-6 294.15,-12 294.15,-12 294.15,-24 294.15,-24 294.15,-30 288.15,-36 282.15,-36"/>
<text text-anchor="middle" x="214.58" y="-12.6" font-family="sans" font-size="18.00">sort by coordinate</text>
</g>
<!-- 5 -->
<g id="node6" class="node">
<title>5</title>
<path fill="none" stroke="ghostwhite" stroke-width="2" d="M476.22,-36C476.22,-36 342.08,-36 342.08,-36 336.08,-36 330.08,-30 330.08,-24 330.08,-24 330.08,-12 330.08,-12 330.08,-6 336.08,0 342.08,0 342.08,0 476.22,0 476.22,0 482.22,0 488.22,-6 488.22,-12 488.22,-12 488.22,-24 488.22,-24 488.22,-30 482.22,-36 476.22,-36"/>
<text text-anchor="middle" x="409.15" y="-12.6" font-family="sans" font-size="18.00">index sorted BAM</text>
</g>
<!-- 4&#45;&gt;5 -->
<g id="edge5" class="edge">
<title>4&#45;&gt;5</title>
<path fill="none" stroke="grey" stroke-width="2" d="M294.18,-18C302.7,-18 311.42,-18 320.04,-18"/>
<polygon fill="grey" stroke="grey" stroke-width="2" points="320.11,-21.5 330.11,-18 320.11,-14.5 320.11,-21.5"/>
</g>
<!-- 5&#45;&gt;3 -->
<g id="edge4" class="edge">
<title>5&#45;&gt;3</title>
<path fill="none" stroke="grey" stroke-width="2" d="M488.37,-18C496.83,-18 505.45,-18 513.92,-18"/>
<polygon fill="grey" stroke="grey" stroke-width="2" points="514.16,-21.5 524.16,-18 514.16,-14.5 514.16,-21.5"/>
</g>
<!-- 6 -->
<g id="node7" class="node">
<title>6</title>
<polygon fill="#cccccc" stroke="#cccccc" stroke-width="2" points="99.06,-36 -0.02,-36 -0.02,0 99.06,0 99.06,-36"/>
<text text-anchor="middle" x="49.52" y="-12.6" font-family="sans" font-size="18.00">input BAM</text>
</g>
<!-- 6&#45;&gt;4 -->
<g id="edge6" class="edge">
<title>6&#45;&gt;4</title>
<path fill="none" stroke="grey" stroke-width="2" d="M99.44,-18C107.47,-18 115.99,-18 124.63,-18"/>
<polygon fill="grey" stroke="grey" stroke-width="2" points="124.8,-21.5 134.8,-18 124.8,-14.5 124.8,-21.5"/>
</g>
</g>
</svg>
